<?xml version="1.0" encoding="UTF-8"?>
<svg width="194px" height="159px" viewBox="0 0 194 159" version="1.1" xmlns="http://www.w3.org/2000/svg" xmlns:xlink="http://www.w3.org/1999/xlink">
    <!-- Generator: Sketch 52.2 (67145) - http://www.bohemiancoding.com/sketch -->
    <title>emblem-blue</title>
    <desc>Created with Sketch.</desc>
    <g id="Page-1" stroke="none" stroke-width="1" fill="none" fill-rule="evenodd">
        <g id="mm-webiste-v1.0" transform="translate(-475.000000, -76.000000)" fill="#1896D4">
            <g id="header">
                <g id="logo" transform="translate(357.000000, 76.000000)">
                    <g id="emblem-blue" transform="translate(118.000000, 0.000000)">
                        <g id="Group">
                            <path d="M46.589283,48.4476886 C54.9804948,40.6926196 81.1542264,15.7254663 94.1745954,23.6476075 C114.07566,35.7530414 81.2803061,72.9363341 73.4475052,84.5068938 C95.7957358,67.9955393 117.464763,50.6658556 139.405065,33.6289538 C149.15387,26.0587997 163.76447,25.0920519 164.54169,41.945661 C165.151346,55.1662612 150.235308,66.7372263 142.479782,76.0016221 C130.059715,90.8390105 127.929375,112.061233 151.297631,99.2546634 C165.972897,91.2120843 179.96286,81.6151663 193.773463,71.8556367 C193.900356,65.9079481 193.201631,59.9334955 191.598386,54.0320357 C180.331744,12.5559611 128.797698,-9.61394972 76.4953795,4.51054339 C29.9300922,17.0863747 -1.54630608,54.1922141 0.0585660377,91.4493106 C15.568805,77.1155718 31.079044,62.7818329 46.589283,48.4476886" id="Shape"></path>
                            <path d="M128.04244,133.191809 C85.0224319,155.073804 99.3580964,88.3994323 118.737354,72.3284672 C98.0716771,89.4667478 79.1605409,109.016221 59.0833711,126.847932 C39.5833208,144.167478 26.8781509,124.759935 36.3752034,104.672749 C38.0776855,101.070965 58.4188092,62.6873479 58.4188092,62.6873479 C58.4188092,62.6873479 14.8318491,104.925791 7.78318239,112.152474 C7.02914465,112.925791 6.27470021,113.698702 5.52025577,114.472425 C21.4534717,149.877129 69.0469182,167.735199 117.296386,154.70438 C153.527614,144.919708 180.618067,120.283455 190.103732,92.2810219 C169.878113,106.938767 149.873338,122.087591 128.04244,133.191809" id="Shape"></path>
                        </g>
                    </g>
                </g>
            </g>
        </g>
    </g>
</svg>