<?xml version="1.0" standalone="no"?>
<!DOCTYPE svg PUBLIC "-//W3C//DTD SVG 20010904//EN"
 "http://www.w3.org/TR/2001/REC-SVG-20010904/DTD/svg10.dtd">
<svg version="1.0" xmlns="http://www.w3.org/2000/svg"
 width="600.000000pt" height="600.000000pt" viewBox="0 0 600.000000 600.000000"
 preserveAspectRatio="xMidYMid meet">
<metadata>
Created by potrace 1.11, written by Peter Selinger 2001-2013
</metadata>
<g transform="translate(0.000000,600.000000) scale(0.100000,-0.100000)"
fill="#000000" stroke="none">
<path d="M0 4404 l0 -1596 193 179 c795 740 1351 1252 1456 1342 488 419 880
621 1127 581 224 -37 366 -251 334 -504 -40 -318 -236 -681 -706 -1313 -158
-212 -187 -254 -164 -237 369 273 777 587 1550 1193 355 278 679 526 721 551
177 107 377 133 515 68 210 -98 278 -440 145 -731 -68 -152 -183 -301 -446
-580 -209 -222 -282 -311 -355 -434 -115 -192 -165 -349 -158 -495 3 -73 8
-92 32 -128 67 -102 216 -107 429 -15 191 83 654 365 1105 673 l212 145 0
1449 0 1448 -2995 0 -2995 0 0 -1596z"/>
<path d="M1625 3472 c-254 -245 -932 -907 -1252 -1224 l-373 -367 0 -936 0
-935 2995 0 2995 0 0 1245 c0 685 -2 1245 -5 1245 -3 0 -145 -102 -315 -226
-716 -520 -1150 -800 -1585 -1025 -339 -175 -555 -215 -730 -135 -105 48 -186
159 -226 313 -27 100 -36 321 -20 459 54 457 265 978 510 1257 25 29 34 43 21
31 -283 -238 -541 -473 -1175 -1073 -380 -360 -700 -654 -790 -726 -79 -63
-194 -126 -274 -149 -77 -23 -188 -21 -255 4 -105 40 -187 137 -234 278 -22
66 -25 95 -26 207 -1 189 31 308 136 518 51 103 462 889 630 1205 33 61 58
112 56 112 -2 0 -39 -35 -83 -78z"/>
</g>
</svg>
