<?xml version="1.0" standalone="no"?>
<!DOCTYPE svg PUBLIC "-//W3C//DTD SVG 20010904//EN"
 "http://www.w3.org/TR/2001/REC-SVG-20010904/DTD/svg10.dtd">
<svg version="1.0" xmlns="http://www.w3.org/2000/svg"
 width="700.000000pt" height="700.000000pt" viewBox="0 0 700.000000 700.000000"
 preserveAspectRatio="xMidYMid meet">
<metadata>
Created by potrace 1.11, written by Peter Selinger 2001-2013
</metadata>
<g transform="translate(0.000000,700.000000) scale(0.100000,-0.100000)"
fill="#000000" stroke="none">
<path d="M0 5204 l0 -1796 133 124 c136 127 372 347 817 759 140 130 359 332
486 450 313 291 430 393 624 549 503 402 924 598 1191 552 98 -17 170 -54 249
-128 115 -109 160 -222 160 -402 0 -220 -88 -482 -272 -812 -140 -249 -286
-467 -593 -880 -195 -263 -229 -312 -205 -294 375 274 924 697 2075 1598 598
468 670 522 770 571 399 198 721 86 812 -281 26 -105 24 -307 -4 -405 -75
-261 -206 -444 -687 -955 -176 -188 -260 -290 -334 -410 -218 -352 -282 -692
-154 -828 68 -72 193 -89 349 -46 204 55 685 331 1346 772 l237 158 0 1750 0
1750 -3500 0 -3500 0 0 -1796z"/>
<path d="M1765 4012 c-182 -180 -1292 -1264 -1586 -1550 l-179 -174 0 -1144 0
-1144 3500 0 3500 0 0 1381 c0 1101 -3 1379 -12 1373 -7 -4 -69 -49 -138 -99
-911 -667 -1592 -1104 -2103 -1350 -218 -104 -345 -144 -513 -160 -92 -9 -218
15 -297 57 -313 167 -381 736 -173 1455 99 342 271 703 446 933 32 42 65 82
74 89 10 8 22 23 28 35 12 22 -114 -85 -392 -334 -251 -224 -391 -355 -985
-915 -964 -911 -1066 -999 -1246 -1084 -119 -57 -194 -74 -304 -69 -75 3 -101
9 -158 36 -127 59 -223 186 -273 362 -15 51 -19 99 -19 230 0 149 3 176 28
273 51 197 41 176 664 1360 173 329 313 600 311 602 -2 2 -80 -71 -173 -163z"/>
</g>
</svg>
