<?xml version="1.0" encoding="UTF-8"?>
<svg width="158px" height="130px" viewBox="0 0 158 130" version="1.1" xmlns="http://www.w3.org/2000/svg" xmlns:xlink="http://www.w3.org/1999/xlink">
    <!-- Generator: Sketch 52.6 (67491) - http://www.bohemiancoding.com/sketch -->
    <title>emblem</title>
    <desc>Created with Sketch.</desc>
    <g id="Page-1" stroke="none" stroke-width="1" fill="none" fill-rule="evenodd">
        <g id="brand-copy" transform="translate(-1439.000000, -159.000000)" fill="#009CE7">
            <g id="colour" transform="translate(1126.000000, 159.000000)">
                <g id="main-vertical" transform="translate(118.000000, 0.000000)">
                    <path d="M232.985401,39.7935216 C220.339541,51.6290753 207.693681,63.4642942 195.047821,75.299513 C193.739331,44.5367165 219.402774,13.8988115 257.368541,3.51507859 C300.011843,-8.14736822 342.028756,10.1580962 351.214712,44.4044589 C352.521875,49.2772328 353.091562,54.210276 352.988103,59.1212205 C341.727995,67.1795624 330.321652,75.1036377 318.356565,81.7443115 C299.30388,92.3185624 301.040795,74.7955946 311.167166,62.5445175 C317.490428,54.8950024 329.651822,45.340977 329.154755,34.4248652 C328.521069,20.5090158 316.608706,21.3072493 308.660278,27.5578467 C290.771837,41.6250391 273.104572,55.9339784 254.883538,69.5672317 C261.269803,60.0135412 288.008622,29.3116837 271.782819,19.316353 C261.167008,12.7751236 239.826953,33.390242 232.985401,39.7935216 Z M299.566484,108.853828 C317.307154,99.7420429 333.563844,87.3113762 350,75.2836737 C342.291565,98.2616233 320.276767,118.477387 290.833805,126.506393 C251.624336,137.199089 212.947976,122.545297 200,93.4932678 C200.613092,92.8583744 201.226184,92.2241466 201.838946,91.5895859 C207.566977,85.6595885 242.987505,51 242.987505,51 C242.987505,51 226.457485,82.4964352 225.073979,85.4519505 C217.35629,101.934887 227.681025,117.86013 243.527554,103.648234 C259.843075,89.0160715 275.211029,72.9743655 292.004795,58.9112108 C276.256426,72.0985587 264.606685,126.809531 299.566484,108.853828 Z" id="emblem"></path>
                </g>
            </g>
        </g>
    </g>
</svg>