<?xml version="1.0" encoding="UTF-8"?>
<svg width="548px" height="58px" viewBox="0 0 548 58" version="1.1" xmlns="http://www.w3.org/2000/svg" xmlns:xlink="http://www.w3.org/1999/xlink">
    <!-- Generator: Sketch 52.6 (67491) - http://www.bohemiancoding.com/sketch -->
    <title>mantramedical</title>
    <desc>Created with Sketch.</desc>
    <g id="Page-1" stroke="none" stroke-width="1" fill="none" fill-rule="evenodd">
        <g id="brand-copy" transform="translate(-1244.000000, -312.000000)">
            <g id="colour" transform="translate(1126.000000, 159.000000)">
                <g id="main-vertical" transform="translate(118.000000, 0.000000)">
                    <g id="mantramedical" transform="translate(0.000000, 153.000000)">
                        <g id="mantra" transform="translate(0.000000, 5.000000)" fill="#000000">
                            <path d="M49.455,12 C54.0225228,12 57.4218638,13.3797939 59.653125,16.1394231 C61.8843862,18.8990523 63,23.1172793 63,28.7942308 L63,53 L51.10875,53 L51.10875,29.1884615 C51.10875,26.4025502 50.6625045,24.3919934 49.77,23.1567308 C48.8774955,21.9214682 47.4075102,21.3038462 45.36,21.3038462 C42.9449879,21.3038462 41.0812566,22.1448634 39.76875,23.8269231 C38.4562434,25.5089828 37.8,27.8743437 37.8,30.9230769 L37.8,53 L25.90875,53 L25.90875,29.1884615 C25.90875,26.4551145 25.4493796,24.4576986 24.530625,23.1961538 C23.6118704,21.9346091 22.15501,21.3038462 20.16,21.3038462 C17.7449879,21.3038462 15.8681317,22.1448634 14.529375,23.8269231 C13.1906183,25.5089828 12.52125,27.8743437 12.52125,30.9230769 L12.52125,53 L0.63,53 L0.63,24.4576923 C0.63,20.1999787 0.4200021,16.3891194 0,13.025 L11.1825,13.025 L11.89125,19.0173077 C13.098756,16.75704 14.7918641,15.0224419 16.970625,13.8134615 C19.1493859,12.6044811 21.6562358,12 24.49125,12 C30.4237797,12 34.3612403,14.4704881 36.30375,19.4115385 C37.6162566,17.1512708 39.4406133,15.3509682 41.776875,14.0105769 C44.1131367,12.6701856 46.6724861,12 49.455,12 Z" id="Path"></path>
                            <path d="M112,13.0094697 L112,52.3787879 L100.258912,52.3787879 L100.258912,46.5549242 C99.0506506,48.5738737 97.3433506,50.1527721 95.1369606,51.2916667 C92.9305706,52.4305613 90.435286,53 87.6510319,53 C84.1838476,53 81.1238407,52.1717255 78.4709193,50.5151515 C75.817998,48.8585776 73.7429718,46.49023 72.2457786,43.4100379 C70.7485854,40.3298457 70,36.7708535 70,32.7329545 C70,28.6950556 70.7485854,25.097238 72.2457786,21.9393939 C73.7429718,18.7815499 75.8311311,16.3355516 78.5103189,14.6013258 C81.1895068,12.8670999 84.2363807,12 87.6510319,12 C90.435286,12 92.9305706,12.5953223 95.1369606,13.7859848 C97.3433506,14.9766474 99.0506506,16.5814293 100.258912,18.6003788 L100.258912,13.0094697 L112,13.0094697 Z M91.0769231,44 C93.9487323,44 96.1538385,43.0190895 97.6923077,41.0572391 C99.2307769,39.0953886 100,36.2559108 100,32.5387205 C100,28.8215302 99.2307769,25.9691457 97.6923077,23.9814815 C96.1538385,21.9938172 93.9487323,21 91.0769231,21 C88.2051138,21 85.9743669,22.0325374 84.3846154,24.0976431 C82.7948638,26.1627488 82,29.02804 82,32.6936027 C82,36.3591654 82.7820435,39.159923 84.3461538,41.0959596 C85.9102642,43.0319962 88.1538315,44 91.0769231,44 Z" id="Combined-Shape"></path>
                            <path d="M145.988024,12 C155.329388,12 160,17.5980209 160,28.7942308 L160,53 L148.245509,53 L148.245509,29.3461538 C148.245509,26.5602425 147.739526,24.5234039 146.727545,23.2355769 C145.715564,21.94775 144.119771,21.3038462 141.94012,21.3038462 C139.345296,21.3038462 137.269469,22.1448634 135.712575,23.8269231 C134.155681,25.5089828 133.377246,27.7692166 133.377246,30.6076923 L133.377246,53 L121.622754,53 L121.622754,24.4576923 C121.622754,20.1999787 121.415172,16.3891194 121,13.025 L132.053892,13.025 L132.832335,19.3326923 C134.23354,16.9672959 136.062863,15.1538525 138.320359,13.8923077 C140.577856,12.6307629 143.133718,12 145.988024,12 Z" id="Path"></path>
                            <path d="M184.050532,21.8052709 L184.050532,37.0922401 C184.050532,39.2650182 184.616129,40.8557783 185.74734,41.8645681 C186.878552,42.8733579 188.343963,43.3777452 190.143617,43.3777452 C191.274828,43.3777452 192.560276,43.1966831 194,42.8345534 L194,51.9136164 C192.148927,52.6378758 189.912247,53 187.289894,53 C182.456536,53 178.7673,51.6291011 176.222074,48.8872621 C173.676849,46.1454231 172.404255,42.2913865 172.404255,37.3250366 L172.404255,21.8052709 L165,21.8052709 L165,13.0366032 L172.404255,13.0366032 L172.404255,3.80234261 L184.050532,0 L184.050532,13.0366032 L194,13.0366032 L194,21.8052709 L184.050532,21.8052709 Z" id="Path"></path>
                            <path d="M223.764706,12 C225.437917,12 226.849667,12.2633243 228,12.7899807 L227.921569,23.6917148 C225.986918,22.7963989 224.052297,22.3487476 222.117647,22.3487476 C218.980376,22.3487476 216.588244,23.2045515 214.941176,24.916185 C213.294109,26.6278184 212.470588,29.0109032 212.470588,32.0655106 L212.470588,53 L200.627451,53 L200.627451,24.4026975 C200.627451,20.1367802 200.418303,16.3185782 200,12.9479769 L211.137255,12.9479769 L211.921569,19.8208092 C212.915038,17.2928583 214.470578,15.3574248 216.588235,14.0144509 C218.705893,12.6714769 221.098026,12 223.764706,12 Z" id="Path"></path>
                            <path d="M272,13.0094697 L272,52.3787879 L260.258912,52.3787879 L260.258912,46.5549242 C259.050651,48.5738737 257.343351,50.1527721 255.136961,51.2916667 C252.930571,52.4305613 250.435286,53 247.651032,53 C244.183848,53 241.123841,52.1717255 238.470919,50.5151515 C235.817998,48.8585776 233.742972,46.49023 232.245779,43.4100379 C230.748585,40.3298457 230,36.7708535 230,32.7329545 C230,28.6950556 230.748585,25.097238 232.245779,21.9393939 C233.742972,18.7815499 235.831131,16.3355516 238.510319,14.6013258 C241.189507,12.8670999 244.236381,12 247.651032,12 C250.435286,12 252.930571,12.5953223 255.136961,13.7859848 C257.343351,14.9766474 259.050651,16.5814293 260.258912,18.6003788 L260.258912,13.0094697 L272,13.0094697 Z M251.076923,44 C253.948732,44 256.153838,43.0190895 257.692308,41.0572391 C259.230777,39.0953886 260,36.2559108 260,32.5387205 C260,28.8215302 259.230777,25.9691457 257.692308,23.9814815 C256.153838,21.9938172 253.948732,21 251.076923,21 C248.205114,21 245.974367,22.0325374 244.384615,24.0976431 C242.794864,26.1627488 242,29.02804 242,32.6936027 C242,36.3591654 242.782043,39.159923 244.346154,41.0959596 C245.910264,43.0319962 248.153832,44 251.076923,44 Z" id="Combined-Shape"></path>
                        </g>
                        <g id="medical" transform="translate(283.000000, 0.000000)" fill="#009CE7">
                            <path d="M42.9803922,17 C51.6601741,17 56,22.0421848 56,32.1267057 L56,57 L51.2156863,57 L51.2156863,32.4385965 C51.2156863,28.4879595 50.509811,25.6159934 49.0980392,23.8226121 C47.6862675,22.0292308 45.4379239,21.1325536 42.3529412,21.1325536 C38.74508,21.1325536 35.9085071,22.3281232 33.8431373,24.7192982 C31.7777675,27.1104733 30.745098,30.3593037 30.745098,34.4658869 L30.745098,57 L25.9607843,57 L25.9607843,32.4385965 C25.9607843,28.4879595 25.2418373,25.6159934 23.8039216,23.8226121 C22.3660059,22.0292308 20.1045906,21.1325536 17.0196078,21.1325536 C13.4640345,21.1325536 10.6274616,22.3281232 8.50980392,24.7192982 C6.39214627,27.1104733 5.33333333,30.3593037 5.33333333,34.4658869 L5.33333333,57 L0.62745098,57 L0.62745098,28.7738791 C0.62745098,24.719278 0.418302745,21.1065786 0,17.9356725 L4.54901961,17.9356725 L5.17647059,24.9532164 C6.27451529,22.3541131 7.90848588,20.3788242 10.0784314,19.0272904 C12.2483769,17.6757567 14.7712275,17 17.6470588,17 C23.9738878,17 28.0261349,19.547083 29.8039216,24.6413255 C30.9019663,22.2501505 32.6143675,20.3788242 34.9411765,19.0272904 C37.2679855,17.6757567 39.9476973,17 42.9803922,17 Z M71.045045,37.1057692 L71.045045,37.3423077 C71.045045,42.6513086 72.2668797,46.7118449 74.7105856,49.5240385 C77.1542915,52.336232 80.7146913,53.7423077 85.3918919,53.7423077 C90.1216453,53.7423077 94.4571875,52.1128368 98.3986486,48.8538462 L100.290541,52.6384615 C98.5562976,54.2679569 96.3491125,55.5689054 93.6689189,56.5413462 C90.9887253,57.5137869 88.2297439,58 85.3918919,58 C79.4008709,58 74.6711885,56.1865566 71.2027027,52.5596154 C67.7342169,48.9326742 66,43.9391344 66,37.5788462 C66,33.53139 66.7751424,29.9439259 68.3254505,26.8163462 C69.8757585,23.6887664 72.0435296,21.2708419 74.8288288,19.5625 C77.614128,17.8541581 80.8198017,17 84.4459459,17 C89.6486747,17 93.7083188,18.6820345 96.625,22.0461538 C99.5416812,25.4102732 101,30.0884316 101,36.0807692 L101,37.1057692 L71.045045,37.1057692 Z M84.0503145,21 C80.4339442,21 77.4989631,22.0506224 75.245283,24.1518987 C72.991603,26.2531751 71.5765228,29.2025127 71,33 L96,33 C95.685533,29.1012463 94.5062995,26.1265925 92.4622642,24.0759494 C90.4182288,22.0253062 87.6142736,21 84.0503145,21 Z M144,0 L144,57.4535666 L139.194748,57.4535666 L139.194748,49.9596231 C138.039382,52.5616999 136.293228,54.5522587 133.956236,55.9313594 C131.619244,57.31046 128.822773,58 125.56674,58 C122.100639,58 119.041589,57.1543378 116.389497,55.4629879 C113.737405,53.771638 111.676156,51.3777634 110.205689,48.2812921 C108.735222,45.1848208 108,41.607019 108,37.5477793 C108,33.4885396 108.722093,29.9367582 110.166302,26.8923284 C111.610511,23.8478986 113.65863,21.5060647 116.310722,19.8667564 C118.962814,18.2274481 122.048122,17.4078062 125.56674,17.4078062 C128.770257,17.4078062 131.54047,18.084336 133.877462,19.4374159 C136.214454,20.7904958 137.986865,22.7680444 139.194748,25.3701211 L139.194748,0 L144,0 Z M126.078313,54 C130.202832,54 133.387539,52.6053408 135.63253,49.8159806 C137.877521,47.0266204 139,43.1009131 139,38.0387409 C139,32.9765687 137.877521,29.0379479 135.63253,26.2227603 C133.387539,23.4075727 130.228936,22 126.156627,22 C121.979899,22 118.742983,23.3946592 116.445783,26.1840194 C114.148583,28.9733796 113,32.8732599 113,37.8837772 C113,42.9459494 114.148583,46.8974838 116.445783,49.7384988 C118.742983,52.5795138 121.953795,54 126.078313,54 Z M157,57 L157,18 L162,18 L162,57 L157,57 Z M157,2 L163,2 L163,8 L157,8 L157,2 Z M191.296837,58 C187.611498,58 184.393363,57.1589828 181.642336,55.4769231 C178.891308,53.7948634 176.763187,51.4163615 175.257908,48.3413462 C173.752628,45.2663308 173,41.7051484 173,37.6576923 C173,33.5576718 173.752628,29.9439259 175.257908,26.8163462 C176.763187,23.6887664 178.917261,21.2708419 181.720195,19.5625 C184.523128,17.8541581 187.767216,17 191.452555,17 C194.09977,17 196.630158,17.4599313 199.043796,18.3798077 C201.457433,19.2996841 203.442815,20.5743508 205,22.2038462 L203.131387,25.9884615 C201.107046,24.3064018 199.17357,23.0842987 197.3309,22.3221154 C195.488231,21.5599321 193.580707,21.1788462 191.608273,21.1788462 C187.403872,21.1788462 184.081926,22.6374854 181.642336,25.5548077 C179.202745,28.47213 177.982968,32.5063845 177.982968,37.6576923 C177.982968,42.7038714 179.189769,46.6461397 181.603406,49.4846154 C184.017044,52.3230911 187.351966,53.7423077 191.608273,53.7423077 C193.580707,53.7423077 195.488231,53.3612218 197.3309,52.5990385 C199.17357,51.8368552 201.107046,50.6410338 203.131387,49.0115385 L205,52.7173077 C203.339002,54.346803 201.275763,55.6346107 198.810219,56.5807692 C196.344675,57.5269278 193.84024,58 191.296837,58 Z M247,17.9461538 L247,57.4480769 L242.194748,57.4480769 L242.194748,49.8788462 C241.039382,52.5070644 239.293228,54.5176212 236.956236,55.9105769 C234.619244,57.3035326 231.822773,58 228.56674,58 C225.048122,58 221.962814,57.1721237 219.310722,55.5163462 C216.65863,53.8605686 214.610511,51.4952077 213.166302,48.4201923 C211.722093,45.3451769 211,41.7577128 211,37.6576923 C211,33.5576718 211.735222,29.9439259 213.205689,26.8163462 C214.676156,23.6887664 216.737405,21.2708419 219.389497,19.5625 C222.041589,17.8541581 225.100639,17 228.56674,17 C231.770257,17 234.54047,17.6833265 236.877462,19.05 C239.214454,20.4166735 240.986865,22.4140894 242.194748,25.0423077 L242.194748,17.9461538 L247,17.9461538 Z M229.156627,54 C233.228936,54 236.387539,52.6053408 238.63253,49.8159806 C240.877521,47.0266204 242,43.1009131 242,38.0387409 C242,32.9249139 240.877521,28.9733796 238.63253,26.1840194 C236.387539,23.3946592 233.202832,22 229.078313,22 C224.953795,22 221.742983,23.4333997 219.445783,26.3002421 C217.148583,29.1670846 216,33.1315324 216,38.1937046 C216,43.204222 217.148583,47.0911888 219.445783,49.8547215 C221.742983,52.6182543 224.979899,54 229.156627,54 Z M260,57 L260,0 L265,0 L265,57 L260,57 Z" id="Combined-Shape"></path>
                        </g>
                    </g>
                </g>
            </g>
        </g>
    </g>
</svg>