<?xml version="1.0" encoding="UTF-8"?>
<svg width="404px" height="53px" viewBox="0 0 404 53" version="1.1" xmlns="http://www.w3.org/2000/svg" xmlns:xlink="http://www.w3.org/1999/xlink">
    <!-- Generator: Sketch 52.6 (67491) - http://www.bohemiancoding.com/sketch -->
    <title>text</title>
    <desc>Created with Sketch.</desc>
    <g id="Page-1" stroke="none" stroke-width="1" fill="none" fill-rule="evenodd">
        <g id="medical-brand" transform="translate(-3090.000000, -807.000000)">
            <g id="dark" transform="translate(2864.000000, 0.000000)">
                <g id="mantra-one" transform="translate(108.000000, 799.000000)">
                    <g id="text" transform="translate(118.000000, 8.000000)">
                        <g id="mantra" fill="#FFFFFF">
                            <path d="M49.455,12 C54.0225228,12 57.4218638,13.3797939 59.653125,16.1394231 C61.8843862,18.8990523 63,23.1172793 63,28.7942308 L63,53 L51.10875,53 L51.10875,29.1884615 C51.10875,26.4025502 50.6625045,24.3919934 49.77,23.1567308 C48.8774955,21.9214682 47.4075102,21.3038462 45.36,21.3038462 C42.9449879,21.3038462 41.0812566,22.1448634 39.76875,23.8269231 C38.4562434,25.5089828 37.8,27.8743437 37.8,30.9230769 L37.8,53 L25.90875,53 L25.90875,29.1884615 C25.90875,26.4551145 25.4493796,24.4576986 24.530625,23.1961538 C23.6118704,21.9346091 22.15501,21.3038462 20.16,21.3038462 C17.7449879,21.3038462 15.8681317,22.1448634 14.529375,23.8269231 C13.1906183,25.5089828 12.52125,27.8743437 12.52125,30.9230769 L12.52125,53 L0.63,53 L0.63,24.4576923 C0.63,20.1999787 0.4200021,16.3891194 0,13.025 L11.1825,13.025 L11.89125,19.0173077 C13.098756,16.75704 14.7918641,15.0224419 16.970625,13.8134615 C19.1493859,12.6044811 21.6562358,12 24.49125,12 C30.4237797,12 34.3612403,14.4704881 36.30375,19.4115385 C37.6162566,17.1512708 39.4406133,15.3509682 41.776875,14.0105769 C44.1131367,12.6701856 46.6724861,12 49.455,12 Z M112,13.0094697 L112,52.3787879 L100.258912,52.3787879 L100.258912,46.5549242 C99.0506506,48.5738737 97.3433506,50.1527721 95.1369606,51.2916667 C92.9305706,52.4305613 90.435286,53 87.6510319,53 C84.1838476,53 81.1238407,52.1717255 78.4709193,50.5151515 C75.817998,48.8585776 73.7429718,46.49023 72.2457786,43.4100379 C70.7485854,40.3298457 70,36.7708535 70,32.7329545 C70,28.6950556 70.7485854,25.097238 72.2457786,21.9393939 C73.7429718,18.7815499 75.8311311,16.3355516 78.5103189,14.6013258 C81.1895068,12.8670999 84.2363807,12 87.6510319,12 C90.435286,12 92.9305706,12.5953223 95.1369606,13.7859848 C97.3433506,14.9766474 99.0506506,16.5814293 100.258912,18.6003788 L100.258912,13.0094697 L112,13.0094697 Z M91.0769231,44 C93.9487323,44 96.1538385,43.0190895 97.6923077,41.0572391 C99.2307769,39.0953886 100,36.2559108 100,32.5387205 C100,28.8215302 99.2307769,25.9691457 97.6923077,23.9814815 C96.1538385,21.9938172 93.9487323,21 91.0769231,21 C88.2051138,21 85.9743669,22.0325374 84.3846154,24.0976431 C82.7948638,26.1627488 82,29.02804 82,32.6936027 C82,36.3591654 82.7820435,39.159923 84.3461538,41.0959596 C85.9102642,43.0319962 88.1538315,44 91.0769231,44 Z M145.988024,12 C155.329388,12 160,17.5980209 160,28.7942308 L160,53 L148.245509,53 L148.245509,29.3461538 C148.245509,26.5602425 147.739526,24.5234039 146.727545,23.2355769 C145.715564,21.94775 144.119771,21.3038462 141.94012,21.3038462 C139.345296,21.3038462 137.269469,22.1448634 135.712575,23.8269231 C134.155681,25.5089828 133.377246,27.7692166 133.377246,30.6076923 L133.377246,53 L121.622754,53 L121.622754,24.4576923 C121.622754,20.1999787 121.415172,16.3891194 121,13.025 L132.053892,13.025 L132.832335,19.3326923 C134.23354,16.9672959 136.062863,15.1538525 138.320359,13.8923077 C140.577856,12.6307629 143.133718,12 145.988024,12 Z M184.050532,21.8052709 L184.050532,37.0922401 C184.050532,39.2650182 184.616129,40.8557783 185.74734,41.8645681 C186.878552,42.8733579 188.343963,43.3777452 190.143617,43.3777452 C191.274828,43.3777452 192.560276,43.1966831 194,42.8345534 L194,51.9136164 C192.148927,52.6378758 189.912247,53 187.289894,53 C182.456536,53 178.7673,51.6291011 176.222074,48.8872621 C173.676849,46.1454231 172.404255,42.2913865 172.404255,37.3250366 L172.404255,21.8052709 L165,21.8052709 L165,13.0366032 L172.404255,13.0366032 L172.404255,3.80234261 L184.050532,0 L184.050532,13.0366032 L194,13.0366032 L194,21.8052709 L184.050532,21.8052709 Z M223.764706,12 C225.437917,12 226.849667,12.2633243 228,12.7899807 L227.921569,23.6917148 C225.986918,22.7963989 224.052297,22.3487476 222.117647,22.3487476 C218.980376,22.3487476 216.588244,23.2045515 214.941176,24.916185 C213.294109,26.6278184 212.470588,29.0109032 212.470588,32.0655106 L212.470588,53 L200.627451,53 L200.627451,24.4026975 C200.627451,20.1367802 200.418303,16.3185782 200,12.9479769 L211.137255,12.9479769 L211.921569,19.8208092 C212.915038,17.2928583 214.470578,15.3574248 216.588235,14.0144509 C218.705893,12.6714769 221.098026,12 223.764706,12 Z M272,13.0094697 L272,52.3787879 L260.258912,52.3787879 L260.258912,46.5549242 C259.050651,48.5738737 257.343351,50.1527721 255.136961,51.2916667 C252.930571,52.4305613 250.435286,53 247.651032,53 C244.183848,53 241.123841,52.1717255 238.470919,50.5151515 C235.817998,48.8585776 233.742972,46.49023 232.245779,43.4100379 C230.748585,40.3298457 230,36.7708535 230,32.7329545 C230,28.6950556 230.748585,25.097238 232.245779,21.9393939 C233.742972,18.7815499 235.831131,16.3355516 238.510319,14.6013258 C241.189507,12.8670999 244.236381,12 247.651032,12 C250.435286,12 252.930571,12.5953223 255.136961,13.7859848 C257.343351,14.9766474 259.050651,16.5814293 260.258912,18.6003788 L260.258912,13.0094697 L272,13.0094697 Z M251.076923,44 C253.948732,44 256.153838,43.0190895 257.692308,41.0572391 C259.230777,39.0953886 260,36.2559108 260,32.5387205 C260,28.8215302 259.230777,25.9691457 257.692308,23.9814815 C256.153838,21.9938172 253.948732,21 251.076923,21 C248.205114,21 245.974367,22.0325374 244.384615,24.0976431 C242.794864,26.1627488 242,29.02804 242,32.6936027 C242,36.3591654 242.782043,39.159923 244.346154,41.0959596 C245.910264,43.0319962 248.153832,44 251.076923,44 Z" id="Combined-Shape"></path>
                        </g>
                        <g id="one" transform="translate(280.000000, 12.000000)" fill="#009CE7">
                            <path d="M18.2252386,41 C14.5959522,41 11.4006501,40.1589828 8.63923648,38.4769231 C5.87782288,36.7948634 3.74762149,34.4032206 2.2485684,31.3019231 C0.749515304,28.2006255 -4.79616347e-13,24.6000205 -4.79616347e-13,20.5 C-4.79616347e-13,16.3999795 0.749515304,12.7993745 2.2485684,9.69807692 C3.74762149,6.59677937 5.87782288,4.20513662 8.63923648,2.52307692 C11.4006501,0.841017231 14.5959522,-1.77635684e-14 18.2252386,-1.77635684e-14 C21.8019267,-1.77635684e-14 24.9577806,0.841017231 27.692895,2.52307692 C30.4280094,4.20513662 32.5450614,6.59677937 34.0441145,9.69807692 C35.5431676,12.7993745 36.2926829,16.3999795 36.2926829,20.5 C36.2926829,24.6000205 35.5431676,28.2006255 34.0441145,31.3019231 C32.5450614,34.4032206 30.4280094,36.7948634 27.692895,38.4769231 C24.9577806,40.1589828 21.8019267,41 18.2252386,41 Z M18.106985,37 C22.3050252,37 25.5453388,35.5750748 27.8280231,32.7251816 C30.1107075,29.8752884 31.2520325,25.8135857 31.2520325,20.5399516 C31.2520325,15.3195865 30.0975888,11.2578838 27.7886667,8.35472155 C25.4797446,5.45155933 22.278787,4 18.1856979,4 C14.0401332,4 10.8129383,5.45155933 8.50401621,8.35472155 C6.19509413,11.2578838 5.04065041,15.3195865 5.04065041,20.5399516 C5.04065041,25.8668547 6.16885677,29.9418745 8.42530335,32.7651332 C10.6817499,35.5883918 13.9089449,37 18.106985,37 Z M64.3650445,3.19744231e-14 C73.8778266,3.19744231e-14 78.6341463,5.0421848 78.6341463,15.1267057 L78.6341463,40 L73.8252225,40 L73.8252225,15.4385965 C73.8252225,11.5399415 73.0237432,8.68097076 71.4207606,6.86159844 C69.817778,5.04222612 67.3082281,4.13255361 63.8920356,4.13255361 C59.9502751,4.13255361 56.7706359,5.3281232 54.3530228,7.71929825 C51.9354096,10.1104733 50.7266212,13.3333131 50.7266212,17.3879142 L50.7266212,40 L45.9965322,40 L45.9965322,11.7738791 C45.9965322,7.71927797 45.7863081,4.10657856 45.3658537,0.935672515 L49.938273,0.935672515 L50.5689516,8.10916179 C51.7777581,5.45807641 53.5909408,3.44380156 56.0085539,2.0662768 C58.4261671,0.688752047 61.2116361,3.19744231e-14 64.3650445,3.19744231e-14 Z M93.8015088,20.1057692 L93.8015088,20.3423077 C93.8015088,25.6513086 95.0332771,29.7118449 97.4968505,32.5240385 C99.9604239,35.336232 103.54977,36.7423077 108.264997,36.7423077 C113.033203,36.7423077 117.403994,35.1128368 121.377499,31.8538462 L123.284773,35.6384615 C121.53643,37.2679569 119.3113,38.5689054 116.609317,39.5413462 C113.907333,40.5137869 111.125921,41 108.264997,41 C102.225268,41 97.4571331,39.1865566 93.9604483,35.5596154 C90.4637634,31.9326742 88.7154472,26.9391344 88.7154472,20.5788462 C88.7154472,16.53139 89.4968915,12.9439259 91.0598037,9.81634615 C92.6227159,6.68876641 94.8081112,4.27084188 97.6160551,2.5625 C100.423999,0.854158125 103.655735,-1.77635684e-14 107.31136,-1.77635684e-14 C112.556387,-1.77635684e-14 116.649037,1.68203446 119.589431,5.04615385 C122.529825,8.41027323 124,13.0884316 124,19.0807692 L124,20.1057692 L93.8015088,20.1057692 Z M106.912512,4 C103.26674,4 100.307898,5.05062241 98.0358951,7.15189873 C95.7638924,9.25317506 94.3373075,12.2025127 93.7560976,16 L118.95935,16 C118.642326,12.1012463 117.453505,9.12659253 115.392852,7.07594937 C113.332198,5.0253062 110.505447,4 106.912512,4 Z" id="Combined-Shape"></path>
                        </g>
                    </g>
                </g>
            </g>
        </g>
    </g>
</svg>