<?xml version="1.0" encoding="UTF-8"?>
<svg width="276px" height="36px" viewBox="0 0 276 36" version="1.1" xmlns="http://www.w3.org/2000/svg" xmlns:xlink="http://www.w3.org/1999/xlink">
    <!-- Generator: Sketch 52.6 (67491) - http://www.bohemiancoding.com/sketch -->
    <title>emblem</title>
    <desc>Created with Sketch.</desc>
    <g id="Welcome" stroke="none" stroke-width="1" fill="none" fill-rule="evenodd">
        <g id="Desktop" transform="translate(-290.000000, -2313.000000)">
            <g id="innovations" transform="translate(150.000000, 1626.000000)">
                <g id="one" transform="translate(0.000000, 195.000000)">
                    <g id="emblem" transform="translate(140.000000, 492.000000)">
                        <g id="mantra" fill="#000000">
                            <path d="M33.7349652,8.16613757 C36.8506304,8.16613757 39.1694384,9.10060116 40.6914588,10.9695564 C42.2134792,12.8385116 42.974478,15.6953003 42.974478,19.5400081 L42.974478,35.9333333 L34.8630452,35.9333333 L34.8630452,19.8070004 C34.8630452,17.9202456 34.5586457,16.5585987 33.9498376,15.7220187 C33.3410294,14.8854388 32.3383016,14.4671551 30.9416241,14.4671551 C29.2942609,14.4671551 28.0229453,15.0367329 27.1276392,16.1759056 C26.2323331,17.3150783 25.7846868,18.9170159 25.7846868,20.9817664 L25.7846868,35.9333333 L17.6732541,35.9333333 L17.6732541,19.8070004 C17.6732541,17.9558448 17.3599016,16.6030975 16.7331874,15.7487179 C16.1064731,14.8943384 15.1126982,14.4671551 13.7518329,14.4671551 C12.1044697,14.4671551 10.8242012,15.0367329 9.91098898,16.1759056 C8.99777676,17.3150783 8.54117749,18.9170159 8.54117749,20.9817664 L8.54117749,35.9333333 L0.42974478,35.9333333 L0.42974478,16.6030932 C0.42974478,13.7195623 0.286497952,11.1386629 0,8.86031746 L7.62796984,8.86031746 L8.11143271,12.9185999 C8.93511433,11.3878366 10.0900419,10.2130824 11.57625,9.39430199 C13.0624581,8.57552161 14.7724671,8.16613757 16.7063283,8.16613757 C20.7531119,8.16613757 23.4389899,9.83927237 24.7640429,13.1855922 C25.659349,11.6548289 26.9038058,10.4355764 28.4974507,9.52779813 C30.0910956,8.62001988 31.8369163,8.16613757 33.7349652,8.16613757 Z M76.3990719,8.84979958 L76.3990719,35.5126182 L68.3900698,35.5126182 L68.3900698,31.5684143 C67.565873,32.9357452 66.4012647,34.005052 64.8962098,34.7763668 C63.3911549,35.5476817 61.689035,35.9333333 59.789799,35.9333333 C57.4247127,35.9333333 55.3373762,35.3723855 53.5277269,34.250473 C51.7180775,33.1285605 50.3026304,31.5246002 49.2813432,29.4385442 C48.2600559,27.3524881 47.74942,24.9421653 47.74942,22.2075036 C47.74942,19.4728419 48.2600559,17.0362247 49.2813432,14.897579 C50.3026304,12.7589332 51.727036,11.1023842 53.5546027,9.92788199 C55.3821694,8.75337984 57.4605474,8.16613757 59.789799,8.16613757 C61.689035,8.16613757 63.3911549,8.56931883 64.8962098,9.37569344 C66.4012647,10.1820681 67.565873,11.2689045 68.3900698,12.6362354 L68.3900698,8.84979958 L76.3990719,8.84979958 Z M62.1267178,29.8380952 C64.0856782,29.8380952 65.5898573,29.1737749 66.6393004,27.8451143 C67.6887434,26.5164537 68.2134571,24.5934211 68.2134571,22.0759589 C68.2134571,19.5584967 67.6887434,17.626723 66.6393004,16.2805801 C65.5898573,14.9344371 64.0856782,14.2613757 62.1267178,14.2613757 C60.1677575,14.2613757 58.6460879,14.9606602 57.5616634,16.3592504 C56.4772389,17.7578405 55.9350348,19.6983552 55.9350348,22.1808526 C55.9350348,24.6633501 56.4684937,26.5601595 57.5354274,27.8713377 C58.6023612,29.182516 60.132776,29.8380952 62.1267178,29.8380952 Z M99.5834781,8.16613757 C105.955545,8.16613757 109.141531,11.9573898 109.141531,19.5400081 L109.141531,35.9333333 L101.123387,35.9333333 L101.123387,19.9137973 C101.123387,18.0270425 100.778238,16.6475963 100.087931,15.7754172 C99.3976236,14.9032381 98.3090784,14.4671551 96.8222627,14.4671551 C95.052244,14.4671551 93.6362502,15.0367329 92.574239,16.1759056 C91.5122278,17.3150783 90.9812301,18.8458186 90.9812301,20.7681726 L90.9812301,35.9333333 L82.9630854,35.9333333 L82.9630854,16.6030932 C82.9630854,13.7195623 82.8214861,11.1386629 82.5382831,8.86031746 L90.0785251,8.86031746 L90.609528,13.1321937 C91.5653381,11.5302321 92.8131826,10.30208 94.3530989,9.44770045 C95.8930152,8.59332092 97.6364575,8.16613757 99.5834781,8.16613757 Z M125.547231,14.8067443 L125.547231,25.159824 C125.547231,26.6313351 125.933044,27.7086752 126.704682,28.3918768 C127.476321,29.0750784 128.475928,29.416674 129.703535,29.416674 C130.475173,29.416674 131.352022,29.2940499 132.334107,29.0487981 L132.334107,35.1975815 C131.071426,35.6880852 129.545709,35.9333333 127.756911,35.9333333 C124.459911,35.9333333 121.943355,35.0048938 120.207169,33.147987 C118.470983,31.2910802 117.602903,28.680939 117.602903,25.3174851 L117.602903,14.8067443 L112.552204,14.8067443 L112.552204,8.86817573 L117.602903,8.86817573 L117.602903,2.61428494 L125.547231,0.0391534392 L125.547231,8.86817573 L132.334107,8.86817573 L132.334107,14.8067443 L125.547231,14.8067443 Z M152.637642,8.16613757 C153.778997,8.16613757 154.742001,8.34447358 155.526682,8.70115097 L155.473181,16.084336 C154.15349,15.4779844 152.833818,15.1748132 151.514126,15.1748132 C149.374085,15.1748132 147.742329,15.7544052 146.618807,16.9136068 C145.495286,18.0728083 144.933534,19.6867492 144.933534,21.7554781 L144.933534,35.9333333 L136.85492,35.9333333 L136.85492,16.565848 C136.85492,13.6767612 136.712253,11.0908889 136.426914,8.80815365 L144.024021,8.80815365 L144.559028,13.4627703 C145.236708,11.7507188 146.297795,10.4399491 147.742323,9.53042175 C149.18685,8.62089441 150.818607,8.16613757 152.637642,8.16613757 Z M185.540603,8.84979958 L185.540603,35.5126182 L177.531601,35.5126182 L177.531601,31.5684143 C176.707404,32.9357452 175.542796,34.005052 174.037741,34.7763668 C172.532686,35.5476817 170.830566,35.9333333 168.93133,35.9333333 C166.566244,35.9333333 164.478908,35.3723855 162.669258,34.250473 C160.859609,33.1285605 159.444162,31.5246002 158.422875,29.4385442 C157.401587,27.3524881 156.890951,24.9421653 156.890951,22.2075036 C156.890951,19.4728419 157.401587,17.0362247 158.422875,14.897579 C159.444162,12.7589332 160.868567,11.1023842 162.696134,9.92788199 C164.523701,8.75337984 166.602079,8.16613757 168.93133,8.16613757 C170.830566,8.16613757 172.532686,8.56931883 174.037741,9.37569344 C175.542796,10.1820681 176.707404,11.2689045 177.531601,12.6362354 L177.531601,8.84979958 L185.540603,8.84979958 Z M171.268249,29.8380952 C173.22721,29.8380952 174.731389,29.1737749 175.780832,27.8451143 C176.830275,26.5164537 177.354988,24.5934211 177.354988,22.0759589 C177.354988,19.5584967 176.830275,17.626723 175.780832,16.2805801 C174.731389,14.9344371 173.22721,14.2613757 171.268249,14.2613757 C169.309289,14.2613757 167.787619,14.9606602 166.703195,16.3592504 C165.61877,17.7578405 165.076566,19.6983552 165.076566,22.1808526 C165.076566,24.6633501 165.610025,26.5601595 166.676959,27.8713377 C167.743893,29.182516 169.274307,29.8380952 171.268249,29.8380952 Z" id="Combined-Shape"></path>
                        </g>
                        <g id="one" transform="translate(192.000000, 8.000000)" fill="#009CE7">
                            <path d="M12.3461294,28 C9.8875805,28 7.72302102,27.4256468 5.852386,26.2769231 C3.98175099,25.1281994 2.53871133,23.4948824 1.52322375,21.3769231 C0.507736174,19.2589638 -4.79616347e-13,16.800014 -4.79616347e-13,14 C-4.79616347e-13,11.199986 0.507736174,8.74103623 1.52322375,6.62307692 C2.53871133,4.50511762 3.98175099,2.87180062 5.852386,1.72307692 C7.72302102,0.574353231 9.8875805,-1.77635684e-14 12.3461294,-1.77635684e-14 C14.7690471,-1.77635684e-14 16.9068836,0.574353231 18.7597031,1.72307692 C20.6125225,2.87180062 22.0466545,4.50511762 23.0621421,6.62307692 C24.0776297,8.74103623 24.5853659,11.199986 24.5853659,14 C24.5853659,16.800014 24.0776297,19.2589638 23.0621421,21.3769231 C22.0466545,23.4948824 20.6125225,25.1281994 18.7597031,26.2769231 C16.9068836,27.4256468 14.7690471,28 12.3461294,28 Z M12.2660221,25.2682927 C15.1098558,25.2682927 17.3049069,24.295173 18.8512415,22.3489045 C20.397576,20.402636 21.1707317,17.6287902 21.1707317,14.027284 C21.1707317,10.4621566 20.3886892,7.68831086 18.8245807,5.7056635 C17.2604722,3.72301613 15.0920815,2.73170732 12.3193437,2.73170732 C9.51105801,2.73170732 7.32489368,3.72301613 5.76078518,5.7056635 C4.19667667,7.68831086 3.41463415,10.4621566 3.41463415,14.027284 C3.41463415,17.6651691 4.17890298,20.4481094 5.70746356,22.3761885 C7.23602415,24.3042676 9.42218847,25.2682927 12.2660221,25.2682927 Z M43.6021269,3.19744231e-14 C50.0462696,3.19744231e-14 53.2682927,3.44344327 53.2682927,10.3304331 L53.2682927,27.3170732 L50.0106346,27.3170732 L50.0106346,10.5434318 C50.0106346,7.88093567 49.467697,5.92846784 48.3818056,4.68596967 C47.2959141,3.4434715 45.5958964,2.82223173 43.2817015,2.82223173 C40.6114767,2.82223173 38.4575276,3.63871828 36.8197896,5.27171588 C35.1820517,6.90471347 34.363195,9.10567721 34.363195,11.8746731 L34.363195,27.3170732 L31.1589412,27.3170732 L31.1589412,8.04069795 C31.1589412,5.27170203 31.0165313,2.80449267 30.7317073,0.638995864 L33.8291527,0.638995864 L34.2563865,5.53796415 C35.0752555,3.72746682 36.3035405,2.35186448 37.9412785,1.41111587 C39.5790164,0.470367251 41.465947,3.19744231e-14 43.6021269,3.19744231e-14 Z M63.5429576,13.7307692 L63.5429576,13.8923077 C63.5429576,17.5179668 64.3773812,20.291016 66.0462536,22.2115385 C67.7151259,24.1320609 70.1466185,25.0923077 73.3408042,25.0923077 C76.5708797,25.0923077 79.5317378,23.9794983 82.2234674,21.7538462 L83.5154911,24.3384615 C82.3311301,25.4512876 80.8237841,26.3397403 78.993408,27.0038462 C77.1630319,27.667952 75.2788495,28 73.3408042,28 C69.2493753,28 66.0193483,26.7615508 63.6506262,24.2846154 C61.2819042,21.8076799 60.097561,18.3974576 60.097561,14.0538462 C60.097561,11.2897298 60.6269265,8.83975427 61.6856735,6.70384615 C62.7444204,4.56793804 64.2248495,2.9166725 66.1270051,1.75 C68.0291606,0.5833275 70.2184012,-1.77635684e-14 72.6947924,-1.77635684e-14 C76.2478754,-1.77635684e-14 79.0203152,1.14870646 81.0121951,3.44615385 C83.004075,5.74360123 84,8.93844108 84,13.0307692 L84,13.7307692 L63.5429576,13.7307692 Z M72.424605,2.73170732 C69.9548887,2.73170732 67.9505114,3.44920554 66.4114128,4.88422353 C64.8723142,6.31924151 63.905918,8.33342328 63.5121951,10.9268293 L80.5853659,10.9268293 C80.3706079,8.26426579 79.5652777,6.2327949 78.1693511,4.83235567 C76.7734245,3.43191643 74.8585283,2.73170732 72.424605,2.73170732 Z" id="Combined-Shape"></path>
                        </g>
                    </g>
                </g>
            </g>
        </g>
    </g>
</svg>