<?xml version="1.0" encoding="UTF-8"?>
<svg width="279px" height="36px" viewBox="0 0 279 36" version="1.1" xmlns="http://www.w3.org/2000/svg" xmlns:xlink="http://www.w3.org/1999/xlink">
    <!-- Generator: Sketch 52.6 (67491) - http://www.bohemiancoding.com/sketch -->
    <title>emblem</title>
    <desc>Created with Sketch.</desc>
    <g id="Welcome" stroke="none" stroke-width="1" fill="none" fill-rule="evenodd">
        <g id="Desktop" transform="translate(-872.000000, -2313.000000)">
            <g id="innovations" transform="translate(150.000000, 1626.000000)">
                <g id="two" transform="translate(584.000000, 195.000000)">
                    <g id="emblem" transform="translate(138.000000, 492.000000)">
                        <g id="mantra" fill="#000000">
                            <path d="M33.5920755,8.1509434 C36.6945438,8.1509434 39.0035302,9.08816189 40.5191038,10.962627 C42.0346774,12.8370921 42.7924528,15.7023029 42.7924528,19.5583454 L42.7924528,36 L34.7153774,36 L34.7153774,19.8261248 C34.7153774,17.9338077 34.4122672,16.5681464 33.8060377,15.7291001 C33.1998083,14.8900539 32.2013277,14.470537 30.810566,14.470537 C29.1701805,14.470537 27.9042497,15.041794 27.0127358,16.1843251 C26.121222,17.3268562 25.6754717,18.9335165 25.6754717,21.0043541 L25.6754717,36 L17.5983962,36 L17.5983962,19.8261248 C17.5983962,17.9695118 17.286371,16.6127764 16.6623113,15.7558781 C16.0382516,14.8989798 15.048686,14.470537 13.6935849,14.470537 C12.0531993,14.470537 10.7783536,15.041794 9.86900943,16.1843251 C8.95966526,17.3268562 8.505,18.9335165 8.505,21.0043541 L8.505,36 L0.427924528,36 L0.427924528,16.6127721 C0.427924528,13.7207403 0.285284445,11.132232 0,8.84716981 L7.59566038,8.84716981 L8.07707547,12.9174165 C8.89726825,11.3821404 10.0473039,10.2039228 11.527217,9.38272859 C13.00713,8.56153436 14.709896,8.1509434 16.635566,8.1509434 C20.6652088,8.1509434 23.3397104,9.8290108 24.6591509,13.1851959 C25.5506648,11.6499198 26.7898506,10.4270728 28.3767453,9.51661829 C29.96364,8.60616381 31.702066,8.1509434 33.5920755,8.1509434 Z" id="Path"></path>
                            <path d="M76.0754717,8.83662093 L76.0754717,35.5780446 L68.1003929,35.5780446 L68.1003929,31.6222127 C67.2796872,32.9935746 66.1200117,34.0660339 64.6213317,34.8396226 C63.1226517,35.6132114 61.4277414,36 59.53655,36 C57.1814814,36 55.1029861,35.4373984 53.3010018,34.3121784 C51.4990175,33.1869584 50.0895658,31.5782695 49.0726043,29.4860635 C48.0556429,27.3938575 47.5471698,24.9764288 47.5471698,22.233705 C47.5471698,19.4909811 48.0556429,17.0471805 49.0726043,14.9022298 C50.0895658,12.7572792 51.5079381,11.0958464 53.3277638,9.91788165 C55.1475895,8.73991692 57.2171642,8.1509434 59.53655,8.1509434 C61.4277414,8.1509434 63.1226517,8.55531328 64.6213317,9.36406518 C66.1200117,10.1728171 67.2796872,11.2628576 68.1003929,12.6342196 L68.1003929,8.83662093 L76.0754717,8.83662093 Z M61.8635704,29.8867925 C63.8142333,29.8867925 65.3120412,29.2205136 66.3570392,27.887936 C67.4020372,26.5553583 67.9245283,24.6266564 67.9245283,22.1017724 C67.9245283,19.5768885 67.4020372,17.6394197 66.3570392,16.2893082 C65.3120412,14.9391966 63.8142333,14.2641509 61.8635704,14.2641509 C59.9129075,14.2641509 58.3976832,14.9654971 57.317852,16.3682104 C56.2380207,17.7709237 55.6981132,19.7171593 55.6981132,22.2069754 C55.6981132,24.6967916 56.2293125,26.599193 57.2917271,27.9142367 C58.3541417,29.2292804 59.8780743,29.8867925 61.8635704,29.8867925 Z" id="Combined-Shape"></path>
                            <path d="M99.1616766,8.1509434 C105.506754,8.1509434 108.679245,11.9533727 108.679245,19.5583454 L108.679245,36 L100.695063,36 L100.695063,19.9332366 C100.695063,18.0409194 100.351376,16.6574064 99.6639928,15.782656 C98.9766094,14.9079056 97.8926749,14.470537 96.4121568,14.470537 C94.6496353,14.470537 93.2396392,15.041794 92.1821263,16.1843251 C91.1246134,17.3268562 90.5958649,18.8621094 90.5958649,20.7901306 L90.5958649,36 L82.6116823,36 L82.6116823,16.6127721 C82.6116823,13.7207403 82.4706827,11.132232 82.1886792,8.84716981 L89.6969834,8.84716981 L90.2257372,13.1316401 C91.1774988,11.5249557 92.4200579,10.2931828 93.9534516,9.43628447 C95.4868453,8.57938614 97.222903,8.1509434 99.1616766,8.1509434 Z" id="Path"></path>
                            <path d="M125.015456,14.8111274 L125.015456,25.1947291 C125.015456,26.6705784 125.399635,27.7510947 126.168005,28.4363104 C126.936375,29.1215261 127.931748,29.4641288 129.154155,29.4641288 C129.922525,29.4641288 130.79566,29.3411433 131.773585,29.0951684 L131.773585,35.2620791 C130.516252,35.7540288 128.996998,36 127.215777,36 C123.932742,36 121.426845,35.0688234 119.698013,33.2064422 C117.96918,31.344061 117.104777,28.7262248 117.104777,25.3528551 L117.104777,14.8111274 L112.075472,14.8111274 L112.075472,8.85505124 L117.104777,8.85505124 L117.104777,2.58272328 L125.015456,0 L125.015456,8.85505124 L131.773585,8.85505124 L131.773585,14.8111274 L125.015456,14.8111274 Z" id="Path"></path>
                            <path d="M151.991121,8.1509434 C153.127642,8.1509434 154.086567,8.32980517 154.867925,8.68753408 L154.81465,16.0924855 C153.500548,15.4843464 152.186466,15.1802814 150.872364,15.1802814 C148.741388,15.1802814 147.116543,15.7615821 145.99778,16.9242011 C144.879018,18.0868201 144.319645,19.7055191 144.319645,21.7803468 L144.319645,36 L136.27525,36 L136.27525,16.5754172 C136.27525,13.677813 136.133187,11.0843173 135.849057,8.79485222 L143.413984,8.79485222 L143.946726,13.4631912 C144.621535,11.7460924 145.678128,10.4314584 147.116537,9.51924965 C148.554946,8.60704092 150.179791,8.1509434 151.991121,8.1509434 Z" id="Path"></path>
                            <path d="M184.754717,8.83662093 L184.754717,35.5780446 L176.779638,35.5780446 L176.779638,31.6222127 C175.958932,32.9935746 174.799257,34.0660339 173.300577,34.8396226 C171.801897,35.6132114 170.106987,36 168.215795,36 C165.860727,36 163.782231,35.4373984 161.980247,34.3121784 C160.178263,33.1869584 158.768811,31.5782695 157.75185,29.4860635 C156.734888,27.3938575 156.226415,24.9764288 156.226415,22.233705 C156.226415,19.4909811 156.734888,17.0471805 157.75185,14.9022298 C158.768811,12.7572792 160.187183,11.0958464 162.007009,9.91788165 C163.826835,8.73991692 165.89641,8.1509434 168.215795,8.1509434 C170.106987,8.1509434 171.801897,8.55531328 173.300577,9.36406518 C174.799257,10.1728171 175.958932,11.2628576 176.779638,12.6342196 L176.779638,8.83662093 L184.754717,8.83662093 Z M170.542816,29.8867925 C172.493479,29.8867925 173.991287,29.2205136 175.036284,27.887936 C176.081282,26.5553583 176.603774,24.6266564 176.603774,22.1017724 C176.603774,19.5768885 176.081282,17.6394197 175.036284,16.2893082 C173.991287,14.9391966 172.493479,14.2641509 170.542816,14.2641509 C168.592153,14.2641509 167.076928,14.9654971 165.997097,16.3682104 C164.917266,17.7709237 164.377358,19.7171593 164.377358,22.2069754 C164.377358,24.6967916 164.908558,26.599193 165.970972,27.9142367 C167.033387,29.2292804 168.55732,29.8867925 170.542816,29.8867925 Z" id="Combined-Shape"></path>
                        </g>
                        <g id="two" transform="translate(187.471698, 0.000000)" fill="#009CE7">
                            <path d="M8.91441509,11.5091321 L8.91441509,27.2975094 C8.91441509,29.4167653 9.32059971,30.882562 10.1329811,31.6949434 C10.9453626,32.5073248 12.1462562,32.9135094 13.7356981,32.9135094 C14.7246842,32.9135094 15.678335,32.7545676 16.5966792,32.4366792 L16.5966792,35.3506415 C15.4664094,35.633209 14.3184964,35.7744906 13.1529057,35.7744906 C10.8217242,35.7744906 8.99389342,35.1210631 7.66935849,33.8141887 C6.34482357,32.5073142 5.68256604,30.5470319 5.68256604,27.933283 L5.68256604,11.5091321 L0.437433962,11.5091321 L0.437433962,8.9130566 L5.68256604,8.9130566 L5.68256604,1.86656604 L8.91441509,0.648 L8.91441509,8.9130566 L16.7556226,8.9130566 L16.7556226,11.5091321 L8.91441509,11.5091321 Z M58.5047547,8.9130566 L61.7895849,8.9130566 L52.1470189,35.4566038 L48.8092075,35.4566038 L40.7560755,13.0455849 L32.6499623,35.4566038 L29.2591698,35.4566038 L19.6695849,8.9130566 L23.1133585,8.9130566 L30.954566,31.5889811 L39.2196226,8.9130566 L42.4514717,8.9130566 L50.4516226,31.5889811 L58.5047547,8.9130566 Z M78.5316226,35.8274717 C76.0944784,35.8274717 73.948764,35.2623453 72.0944151,34.1320755 C70.2400662,33.0018057 68.8095899,31.3947274 67.8029434,29.3107925 C66.7962969,27.2268575 66.2929811,24.80741 66.2929811,22.0523774 C66.2929811,19.2973447 66.7962969,16.8778972 67.8029434,14.7939623 C68.8095899,12.7100273 70.2400662,11.102949 72.0944151,9.97267925 C73.948764,8.84240944 76.0944784,8.27728302 78.5316226,8.27728302 C80.933446,8.27728302 83.0526701,8.84240944 84.8893585,9.97267925 C86.7260469,11.102949 88.1476931,12.7100273 89.1543396,14.7939623 C90.1609862,16.8778972 90.6643019,19.2973447 90.6643019,22.0523774 C90.6643019,24.80741 90.1609862,27.2268575 89.1543396,29.3107925 C88.1476931,31.3947274 86.7260469,33.0018057 84.8893585,34.1320755 C83.0526701,35.2623453 80.933446,35.8274717 78.5316226,35.8274717 Z M78.4786415,32.9664906 C81.304316,32.9664906 83.4853508,32.0216698 85.0218113,30.132 C86.5582718,28.2423302 87.3264906,25.5491496 87.3264906,22.0523774 C87.3264906,18.5909261 86.5494417,15.8977455 84.9953208,13.9727547 C83.4411998,12.047764 81.2866553,11.085283 78.5316226,11.085283 C75.7412691,11.085283 73.5690644,12.047764 72.0149434,13.9727547 C70.4608224,15.8977455 69.6837736,18.5909261 69.6837736,22.0523774 C69.6837736,25.5844705 70.4431622,28.2864812 71.9619623,30.1584906 C73.4807623,32.0304999 75.652967,32.9664906 78.4786415,32.9664906 Z" id="Combined-Shape"></path>
                        </g>
                    </g>
                </g>
            </g>
        </g>
    </g>
</svg>