<?xml version="1.0" encoding="UTF-8"?>
<svg width="410px" height="53px" viewBox="0 0 410 53" version="1.1" xmlns="http://www.w3.org/2000/svg" xmlns:xlink="http://www.w3.org/1999/xlink">
    <!-- Generator: Sketch 52.6 (67491) - http://www.bohemiancoding.com/sketch -->
    <title>text</title>
    <desc>Created with Sketch.</desc>
    <g id="Page-1" stroke="none" stroke-width="1" fill="none" fill-rule="evenodd">
        <g id="medical-brand" transform="translate(-3090.000000, -1007.000000)">
            <g id="dark" transform="translate(2864.000000, 0.000000)">
                <g id="mantra-two" transform="translate(108.000000, 999.000000)">
                    <g id="text" transform="translate(118.000000, 8.000000)">
                        <g id="mantra" fill="#FFFFFF">
                            <path d="M49.455,12 C54.0225228,12 57.4218638,13.3797939 59.653125,16.1394231 C61.8843862,18.8990523 63,23.1172793 63,28.7942308 L63,53 L51.10875,53 L51.10875,29.1884615 C51.10875,26.4025502 50.6625045,24.3919934 49.77,23.1567308 C48.8774955,21.9214682 47.4075102,21.3038462 45.36,21.3038462 C42.9449879,21.3038462 41.0812566,22.1448634 39.76875,23.8269231 C38.4562434,25.5089828 37.8,27.8743437 37.8,30.9230769 L37.8,53 L25.90875,53 L25.90875,29.1884615 C25.90875,26.4551145 25.4493796,24.4576986 24.530625,23.1961538 C23.6118704,21.9346091 22.15501,21.3038462 20.16,21.3038462 C17.7449879,21.3038462 15.8681317,22.1448634 14.529375,23.8269231 C13.1906183,25.5089828 12.52125,27.8743437 12.52125,30.9230769 L12.52125,53 L0.63,53 L0.63,24.4576923 C0.63,20.1999787 0.4200021,16.3891194 0,13.025 L11.1825,13.025 L11.89125,19.0173077 C13.098756,16.75704 14.7918641,15.0224419 16.970625,13.8134615 C19.1493859,12.6044811 21.6562358,12 24.49125,12 C30.4237797,12 34.3612403,14.4704881 36.30375,19.4115385 C37.6162566,17.1512708 39.4406133,15.3509682 41.776875,14.0105769 C44.1131367,12.6701856 46.6724861,12 49.455,12 Z" id="Path"></path>
                            <path d="M112,13.0094697 L112,52.3787879 L100.258912,52.3787879 L100.258912,46.5549242 C99.0506506,48.5738737 97.3433506,50.1527721 95.1369606,51.2916667 C92.9305706,52.4305613 90.435286,53 87.6510319,53 C84.1838476,53 81.1238407,52.1717255 78.4709193,50.5151515 C75.817998,48.8585776 73.7429718,46.49023 72.2457786,43.4100379 C70.7485854,40.3298457 70,36.7708535 70,32.7329545 C70,28.6950556 70.7485854,25.097238 72.2457786,21.9393939 C73.7429718,18.7815499 75.8311311,16.3355516 78.5103189,14.6013258 C81.1895068,12.8670999 84.2363807,12 87.6510319,12 C90.435286,12 92.9305706,12.5953223 95.1369606,13.7859848 C97.3433506,14.9766474 99.0506506,16.5814293 100.258912,18.6003788 L100.258912,13.0094697 L112,13.0094697 Z M91.0769231,44 C93.9487323,44 96.1538385,43.0190895 97.6923077,41.0572391 C99.2307769,39.0953886 100,36.2559108 100,32.5387205 C100,28.8215302 99.2307769,25.9691457 97.6923077,23.9814815 C96.1538385,21.9938172 93.9487323,21 91.0769231,21 C88.2051138,21 85.9743669,22.0325374 84.3846154,24.0976431 C82.7948638,26.1627488 82,29.02804 82,32.6936027 C82,36.3591654 82.7820435,39.159923 84.3461538,41.0959596 C85.9102642,43.0319962 88.1538315,44 91.0769231,44 Z" id="Combined-Shape"></path>
                            <path d="M145.988024,12 C155.329388,12 160,17.5980209 160,28.7942308 L160,53 L148.245509,53 L148.245509,29.3461538 C148.245509,26.5602425 147.739526,24.5234039 146.727545,23.2355769 C145.715564,21.94775 144.119771,21.3038462 141.94012,21.3038462 C139.345296,21.3038462 137.269469,22.1448634 135.712575,23.8269231 C134.155681,25.5089828 133.377246,27.7692166 133.377246,30.6076923 L133.377246,53 L121.622754,53 L121.622754,24.4576923 C121.622754,20.1999787 121.415172,16.3891194 121,13.025 L132.053892,13.025 L132.832335,19.3326923 C134.23354,16.9672959 136.062863,15.1538525 138.320359,13.8923077 C140.577856,12.6307629 143.133718,12 145.988024,12 Z" id="Path"></path>
                            <path d="M184.050532,21.8052709 L184.050532,37.0922401 C184.050532,39.2650182 184.616129,40.8557783 185.74734,41.8645681 C186.878552,42.8733579 188.343963,43.3777452 190.143617,43.3777452 C191.274828,43.3777452 192.560276,43.1966831 194,42.8345534 L194,51.9136164 C192.148927,52.6378758 189.912247,53 187.289894,53 C182.456536,53 178.7673,51.6291011 176.222074,48.8872621 C173.676849,46.1454231 172.404255,42.2913865 172.404255,37.3250366 L172.404255,21.8052709 L165,21.8052709 L165,13.0366032 L172.404255,13.0366032 L172.404255,3.80234261 L184.050532,0 L184.050532,13.0366032 L194,13.0366032 L194,21.8052709 L184.050532,21.8052709 Z" id="Path"></path>
                            <path d="M223.764706,12 C225.437917,12 226.849667,12.2633243 228,12.7899807 L227.921569,23.6917148 C225.986918,22.7963989 224.052297,22.3487476 222.117647,22.3487476 C218.980376,22.3487476 216.588244,23.2045515 214.941176,24.916185 C213.294109,26.6278184 212.470588,29.0109032 212.470588,32.0655106 L212.470588,53 L200.627451,53 L200.627451,24.4026975 C200.627451,20.1367802 200.418303,16.3185782 200,12.9479769 L211.137255,12.9479769 L211.921569,19.8208092 C212.915038,17.2928583 214.470578,15.3574248 216.588235,14.0144509 C218.705893,12.6714769 221.098026,12 223.764706,12 Z" id="Path"></path>
                            <path d="M272,13.0094697 L272,52.3787879 L260.258912,52.3787879 L260.258912,46.5549242 C259.050651,48.5738737 257.343351,50.1527721 255.136961,51.2916667 C252.930571,52.4305613 250.435286,53 247.651032,53 C244.183848,53 241.123841,52.1717255 238.470919,50.5151515 C235.817998,48.8585776 233.742972,46.49023 232.245779,43.4100379 C230.748585,40.3298457 230,36.7708535 230,32.7329545 C230,28.6950556 230.748585,25.097238 232.245779,21.9393939 C233.742972,18.7815499 235.831131,16.3355516 238.510319,14.6013258 C241.189507,12.8670999 244.236381,12 247.651032,12 C250.435286,12 252.930571,12.5953223 255.136961,13.7859848 C257.343351,14.9766474 259.050651,16.5814293 260.258912,18.6003788 L260.258912,13.0094697 L272,13.0094697 Z M251.076923,44 C253.948732,44 256.153838,43.0190895 257.692308,41.0572391 C259.230777,39.0953886 260,36.2559108 260,32.5387205 C260,28.8215302 259.230777,25.9691457 257.692308,23.9814815 C256.153838,21.9938172 253.948732,21 251.076923,21 C248.205114,21 245.974367,22.0325374 244.384615,24.0976431 C242.794864,26.1627488 242,29.02804 242,32.6936027 C242,36.3591654 242.782043,39.159923 244.346154,41.0959596 C245.910264,43.0319962 248.153832,44 251.076923,44 Z" id="Combined-Shape"></path>
                        </g>
                        <g id="two" transform="translate(276.000000, 0.000000)" fill="#009CE7">
                            <path d="M13.124,16.944 L13.124,40.188 C13.124,43.3080156 13.721994,45.465994 14.918,46.662 C16.114006,47.858006 17.8819883,48.456 20.222,48.456 C21.6780073,48.456 23.0819932,48.2220023 24.434,47.754 L24.434,52.044 C22.7699917,52.4600021 21.0800086,52.668 19.364,52.668 C15.9319828,52.668 13.2410098,51.7060096 11.291,49.782 C9.34099025,47.8579904 8.366,44.9720192 8.366,41.124 L8.366,16.944 L0.644,16.944 L0.644,13.122 L8.366,13.122 L8.366,2.748 L13.124,0.954 L13.124,13.122 L24.668,13.122 L24.668,16.944 L13.124,16.944 Z" id="Path"></path>
                            <polygon id="Path" points="86.132 13.122 90.968 13.122 76.772 52.2 71.858 52.2 60.002 19.206 48.068 52.2 43.076 52.2 28.958 13.122 34.028 13.122 45.572 46.506 57.74 13.122 62.498 13.122 74.276 46.506"></polygon>
                            <path d="M115.616,52.746 C112.027982,52.746 108.869014,51.9140083 106.139,50.25 C103.408986,48.5859917 101.303007,46.2200153 99.821,43.152 C98.3389926,40.0839847 97.598,36.5220203 97.598,32.466 C97.598,28.4099797 98.3389926,24.8480153 99.821,21.78 C101.303007,18.7119847 103.408986,16.3460083 106.139,14.682 C108.869014,13.0179917 112.027982,12.186 115.616,12.186 C119.152018,12.186 122.271986,13.0179917 124.976,14.682 C127.680014,16.3460083 129.772993,18.7119847 131.255,21.78 C132.737007,24.8480153 133.478,28.4099797 133.478,32.466 C133.478,36.5220203 132.737007,40.0839847 131.255,43.152 C129.772993,46.2200153 127.680014,48.5859917 124.976,50.25 C122.271986,51.9140083 119.152018,52.746 115.616,52.746 Z M115.538,48.534 C119.698021,48.534 122.908989,47.1430139 125.171,44.361 C127.433011,41.5789861 128.564,37.6140257 128.564,32.466 C128.564,27.3699745 127.420011,23.4050142 125.132,20.571 C122.843989,17.7369858 119.67202,16.32 115.616,16.32 C111.507979,16.32 108.310011,17.7369858 106.022,20.571 C103.733989,23.4050142 102.59,27.3699745 102.59,32.466 C102.59,37.666026 103.707989,41.6439862 105.944,44.4 C108.180011,47.1560138 111.377979,48.534 115.538,48.534 Z" id="Combined-Shape"></path>
                        </g>
                    </g>
                </g>
            </g>
        </g>
    </g>
</svg>